<?xml version="1.0" encoding="UTF-8"?>
<svg xmlns="http://www.w3.org/2000/svg" viewBox="0 0 200 200">
  <defs>
    <linearGradient id="grad" x1="0%" y1="0%" x2="100%" y2="100%">
      <stop offset="0%" stop-color="#6366f1"/>
      <stop offset="100%" stop-color="#a855f7"/>
    </linearGradient>
  </defs>
  <rect width="200" height="200" rx="29.83" ry="29.83" fill="url(#grad)"/>
  <path fill="#fff" d="M90,155c-8.27,0-15-6.73-15-15v-65c0-2.76-2.24-5-5-5s-5,2.24-5,5v20c0,8.27-6.73,15-15,15-2.76,0-5-2.24-5-5s2.24-5,5-5,5-2.24,5-5v-20c0-8.27,6.73-15,15-15s15,6.73,15,15v65c0,2.76,2.24,5,5,5s5-2.24,5-5V60c0-8.27,6.73-15,15-15s15,6.73,15,15v65c0,2.76,2.24,5,5,5s5-2.24,5-5v-20c0-8.27,6.73-15,15-15,2.76,0,5,2.24,5,5s-2.24,5-5,5-5,2.24-5,5v20c0,8.27-6.73,15-15,15s-15-6.73-15-15V60c0-2.76-2.24-5-5-5s-5,2.24-5,5v80c0,8.27-6.73,15-15,15Z"/>
</svg>
